<svg width="211" height="204" viewBox="0 0 211 204" fill="none" xmlns="http://www.w3.org/2000/svg">
<path d="M25.013 42.803C16.901 43.483 8.113 44.841 0 46.879C21.633 18.344 55.435 0 93.293 0C158.193 0 210.248 52.994 210.248 118.897C210.248 152.187 196.727 182.082 175.77 203.143C176.446 197.708 176.446 192.273 176.446 186.838C176.446 171.211 173.742 156.264 169.686 142.676C176.446 140.638 181.178 135.203 181.178 127.729C181.178 118.897 174.418 112.103 165.629 112.103C162.249 112.103 159.545 112.782 157.517 114.82C156.165 125.011 160.221 133.844 169.685 142.676C168.333 142.676 166.981 143.356 165.629 143.356C157.517 143.356 150.08 136.561 150.08 127.729C150.08 122.294 152.784 117.538 156.84 114.82C150.08 103.27 141.292 92.4 131.827 82.888C137.912 77.453 141.967 69.3 141.967 60.468C141.967 43.482 128.447 29.894 112.222 29.894C98.702 29.894 86.532 39.406 83.152 52.314C91.265 72.017 106.814 84.926 131.827 82.888C126.419 87.644 119.659 90.361 112.222 90.361C95.997 90.361 82.477 76.773 82.477 59.788C82.477 57.07 83.153 54.353 83.829 51.635C72.336 47.559 60.843 44.841 47.999 43.482C47.999 37.368 43.266 31.932 36.506 31.932C30.422 31.252 25.013 36.688 25.013 42.802V42.803ZM25.013 42.803C28.393 45.52 31.773 46.879 35.153 46.879C39.886 46.879 42.59 45.52 47.999 43.482C47.323 49.597 42.59 54.352 36.506 54.352C30.422 54.352 25.013 48.917 25.013 42.802V42.803Z" fill="white"/>
</svg>
