<svg width="118" height="118" viewBox="0 0 118 118" fill="none" xmlns="http://www.w3.org/2000/svg">
<mask id="mask0_1_155" style="mask-type:alpha" maskUnits="userSpaceOnUse" x="0" y="0" width="118" height="118">
<path d="M0 46.046C0 29.7586 0 21.6148 3.21998 15.4161C5.93342 10.1925 10.1925 5.93342 15.4161 3.21998C21.6148 0 29.7586 0 46.046 0H71.954C88.2414 0 96.3852 0 102.584 3.21998C107.807 5.93342 112.067 10.1925 114.78 15.4161C118 21.6148 118 29.7586 118 46.046V71.954C118 88.2414 118 96.3852 114.78 102.584C112.067 107.807 107.807 112.067 102.584 114.78C96.3852 118 88.2414 118 71.954 118H46.046C29.7586 118 21.6148 118 15.4161 114.78C10.1925 112.067 5.93342 107.807 3.21998 102.584C0 96.3852 0 88.2414 0 71.954V46.046Z" fill="#C4C4C4"/>
</mask>
<g mask="url(#mask0_1_155)">
<rect width="118" height="118" fill="url(#paint0_linear_1_155)"/>
<path fill-rule="evenodd" clip-rule="evenodd" d="M21 43.66V74.284H29.008V65H33.804C36.004 65 37.8667 64.604 39.392 63.812C41.1813 62.9027 42.5893 61.5973 43.616 59.896C44.672 58.1947 45.2 56.332 45.2 54.308C45.2 52.284 44.672 50.436 43.616 48.764C42.56 47.0627 41.1373 45.7573 39.348 44.848C37.7933 44.056 35.9453 43.66 33.804 43.66H21ZM76.3406 43.66V74.284H84.3486V65H89.1446C91.3446 65 93.2073 64.604 94.7326 63.812C96.522 62.9027 97.93 61.5973 98.9566 59.896C100.013 58.1947 100.541 56.332 100.541 54.308C100.541 52.284 100.013 50.436 98.9566 48.764C97.9006 47.0627 96.478 45.7573 94.6886 44.848C93.134 44.056 91.286 43.66 89.1446 43.66H76.3406ZM33.5 50H29V59H33.5C35.9853 59 38 56.9853 38 54.5C38 52.0147 35.9853 50 33.5 50Z" fill="white"/>
<path d="M70.6133 74.7109H49.623V71.1445L59.8066 60.0586C60.6517 59.1276 61.3607 58.2969 61.9336 57.5664C62.5065 56.8216 62.972 56.1413 63.3301 55.5254C63.6738 54.9095 63.9173 54.3366 64.0605 53.8066C64.2181 53.2624 64.2969 52.7181 64.2969 52.1738C64.2969 51.4434 64.1895 50.7773 63.9746 50.1758C63.7598 49.5742 63.4447 49.0586 63.0293 48.6289C62.6139 48.1992 62.1126 47.8626 61.5254 47.6191C60.9525 47.3757 60.3079 47.2539 59.5918 47.2539C58.6751 47.2539 57.8802 47.3828 57.207 47.6406C56.5339 47.8984 55.9753 48.2637 55.5312 48.7363C55.0729 49.2376 54.7292 49.8464 54.5 50.5625C54.2708 51.2643 54.1562 52.0664 54.1562 52.9688H49C49 51.6081 49.2507 50.3262 49.752 49.123C50.2533 47.9056 50.9694 46.8457 51.9004 45.9434C52.8171 45.041 53.9342 44.3249 55.252 43.7949C56.584 43.265 58.0664 43 59.6992 43C61.2318 43 62.5996 43.222 63.8027 43.666C65.0202 44.11 66.0443 44.7259 66.875 45.5137C67.6914 46.3014 68.3145 47.2467 68.7441 48.3496C69.1738 49.4382 69.3887 50.6413 69.3887 51.959C69.3887 52.9473 69.224 53.9069 68.8945 54.8379C68.5794 55.7546 68.1426 56.6641 67.584 57.5664C67.0111 58.4688 66.3307 59.3783 65.543 60.2949C64.7695 61.2116 63.9245 62.1569 63.0078 63.1309L56.0469 70.5645H70.6133V74.7109Z" fill="white"/>
</g>
<defs>
<linearGradient id="paint0_linear_1_155" x1="0" y1="0" x2="118" y2="118" gradientUnits="userSpaceOnUse">
<stop stop-color="#3CD8FA"/>
<stop offset="1" stop-color="#8417F1"/>
</linearGradient>
</defs>
</svg>
